<svg width="84" height="84" viewBox="0 0 84 84" fill="none" xmlns="http://www.w3.org/2000/svg">
<path d="M16.3749 63.25C19.9166 60.5417 23.8749 58.4063 28.2499 56.8438C32.6249 55.2813 37.2083 54.5 41.9999 54.5C46.7916 54.5 51.3749 55.2813 55.7499 56.8438C60.1249 58.4063 64.0832 60.5417 67.6249 63.25C70.0555 60.4028 71.9478 57.1736 73.302 53.5625C74.6562 49.9514 75.3332 46.0972 75.3332 42C75.3332 32.7639 72.0867 24.8993 65.5937 18.4063C59.1006 11.9132 51.236 8.66668 41.9999 8.66668C32.7638 8.66668 24.8992 11.9132 18.4062 18.4063C11.9131 24.8993 8.66658 32.7639 8.66658 42C8.66658 46.0972 9.34367 49.9514 10.6978 53.5625C12.052 57.1736 13.9444 60.4028 16.3749 63.25ZM41.9999 46.1667C37.9027 46.1667 34.4478 44.7604 31.6353 41.9479C28.8228 39.1354 27.4166 35.6806 27.4166 31.5833C27.4166 27.4861 28.8228 24.0313 31.6353 21.2188C34.4478 18.4063 37.9027 17 41.9999 17C46.0971 17 49.552 18.4063 52.3645 21.2188C55.177 24.0313 56.5832 27.4861 56.5832 31.5833C56.5832 35.6806 55.177 39.1354 52.3645 41.9479C49.552 44.7604 46.0971 46.1667 41.9999 46.1667ZM41.9999 83.6667C36.236 83.6667 30.8194 82.5729 25.7499 80.3854C20.6805 78.1979 16.2708 75.2292 12.5208 71.4792C8.77075 67.7292 5.802 63.3195 3.6145 58.25C1.427 53.1806 0.333252 47.7639 0.333252 42C0.333252 36.2361 1.427 30.8195 3.6145 25.75C5.802 20.6806 8.77075 16.2708 12.5208 12.5208C16.2708 8.77084 20.6805 5.80209 25.7499 3.61459C30.8194 1.42709 36.236 0.333344 41.9999 0.333344C47.7638 0.333344 53.1805 1.42709 58.2499 3.61459C63.3194 5.80209 67.7291 8.77084 71.4791 12.5208C75.2291 16.2708 78.1978 20.6806 80.3853 25.75C82.5728 30.8195 83.6666 36.2361 83.6666 42C83.6666 47.7639 82.5728 53.1806 80.3853 58.25C78.1978 63.3195 75.2291 67.7292 71.4791 71.4792C67.7291 75.2292 63.3194 78.1979 58.2499 80.3854C53.1805 82.5729 47.7638 83.6667 41.9999 83.6667Z" fill="#546E7A"/>
</svg>
