<?xml version="1.0" encoding="iso-8859-1"?>
<!-- Uploaded to: SVG Repo, www.svgrepo.com, Generator: SVG Repo Mixer Tools -->
<svg fill="#000000" height="800px" width="800px" version="1.1" id="Layer_1" xmlns="http://www.w3.org/2000/svg" xmlns:xlink="http://www.w3.org/1999/xlink" 
	 viewBox="0 0 512 512" xml:space="preserve">
<g>
	<g>
		<path d="M298.178,196.894c-3.926-3.923-9.142-6.084-14.689-6.084c-5.547,0-10.763,2.16-14.686,6.084l-12.815,12.816
			l-12.815-12.816c-3.923-3.923-9.138-6.084-14.686-6.084c-5.548,0-10.764,2.16-14.686,6.084c-8.098,8.099-8.098,21.274,0,29.373
			l42.189,42.188l42.189-42.188C306.276,218.168,306.276,204.993,298.178,196.894z"/>
	</g>
</g>
<g>
	<g>
		<path d="M495.489,141.191L391.003,36.704h-89.386v18.124c0,25.161-20.469,45.63-45.63,45.63c-25.161,0-45.63-20.469-45.63-45.63
			V36.704h-89.386L16.485,141.191c-21.981,21.981-21.981,57.746,0,79.727c10.648,10.648,24.805,16.513,39.864,16.513
			s29.216-5.865,39.864-16.513l14.141-14.141v141.127l76.504,114.757v-56.491c0-38.117,31.01-69.127,69.127-69.127
			c38.117,0,69.127,31.011,69.127,69.127v56.491l76.504-114.757V206.776l14.141,14.141c10.648,10.648,24.806,16.513,39.864,16.513
			c15.058,0,29.216-5.865,39.864-16.513C506.135,210.269,512,196.112,512,181.054C512.001,165.995,506.138,151.838,495.489,141.191z
			 M323.807,251.897l-67.818,67.819l-67.818-67.819c-22.231-22.231-22.231-58.404,0-80.634
			c18.336-18.336,46.159-21.549,67.818-9.636c21.658-11.913,49.482-8.702,67.818,9.636
			C346.037,193.494,346.037,229.667,323.807,251.897z"/>
	</g>
</g>
<g>
	<g>
		<path d="M255.987,373.29c-18.13,0-32.879,14.75-32.879,32.879v69.127h65.758v-69.127
			C288.868,388.04,274.117,373.29,255.987,373.29z"/>
	</g>
</g>
</svg>