<?xml version="1.0" encoding="iso-8859-1"?>
<!-- Uploaded to: SVG Repo, www.svgrepo.com, Generator: SVG Repo Mixer Tools -->
<svg fill="#000000" version="1.1" id="Layer_1" xmlns="http://www.w3.org/2000/svg" xmlns:xlink="http://www.w3.org/1999/xlink" 
	 viewBox="0 0 511.997 511.997" xml:space="preserve">
<g transform="translate(0 -1)">
	<g>
		<g>
			<path d="M361.527,80.441c-2.526-17.741-13.901-32.631-29.781-39.97c0.461-1.741,0.777-3.038,0.853-3.379
				c0.631-2.842-0.239-5.82-2.295-7.885c-9.515-9.515-26.692-18.099-44.885-27.204c-2.347-1.169-5.086-1.186-7.458-0.077
				s-4.096,3.251-4.676,5.803c-0.137,0.58-9.481,41.259-17.271,71.996c-7.799-30.754-17.161-71.526-17.297-72.098
				c-0.58-2.551-2.304-4.693-4.676-5.811c-2.364-1.118-5.12-1.084-7.458,0.085c-18.193,9.096-35.371,17.681-44.885,27.196
				c-2.057,2.065-2.927,5.043-2.295,7.885c0.085,0.35,0.401,1.673,0.879,3.482c-15.898,7.33-27.281,22.229-29.807,39.979
				c-2.466,17.323-5.41,41.301-5.41,57.088c0,1.86,0.614,3.669,1.741,5.154c1.946,2.569,17.69,22.647,36.216,21.555
				c2.543,5.41,6.315,14.336,9.199,24.491h40.559c2.961-5.077,8.405-8.533,14.694-8.533h17.058c6.289,0,11.733,3.456,14.694,8.533
				h40.559c2.884-10.155,6.656-19.081,9.199-24.491c18.611,0.87,34.27-18.987,36.215-21.555c1.126-1.485,1.732-3.294,1.732-5.154
				C366.929,121.691,363.993,97.738,361.527,80.441z M243.784,101.356c-0.572-0.188-1.109-0.452-1.673-0.657
				c-1.246-0.469-2.492-0.93-3.669-1.51c-0.495-0.239-0.956-0.538-1.434-0.794c-1.212-0.649-2.415-1.306-3.558-2.057
				c-0.427-0.273-0.819-0.597-1.237-0.887c-1.161-0.811-2.304-1.638-3.396-2.543c-0.375-0.307-0.725-0.649-1.092-0.964
				c-1.092-0.956-2.176-1.929-3.2-2.961c-0.333-0.333-0.649-0.691-0.981-1.041c-1.007-1.058-2.005-2.133-2.953-3.26
				c-0.324-0.384-0.631-0.785-0.947-1.178c-0.913-1.118-1.801-2.244-2.654-3.405c-0.324-0.452-0.631-0.905-0.947-1.357
				c-0.794-1.126-1.57-2.261-2.313-3.422c-0.333-0.521-0.648-1.05-0.973-1.579c-0.674-1.084-1.331-2.167-1.954-3.268
				c-0.358-0.623-0.7-1.254-1.05-1.877c-0.538-0.99-1.067-1.98-1.57-2.961c-0.375-0.734-0.742-1.468-1.092-2.193
				c-0.427-0.87-0.845-1.732-1.246-2.586c-0.384-0.828-0.751-1.655-1.109-2.466c-0.324-0.717-0.631-1.434-0.93-2.133
				c-0.393-0.913-0.759-1.809-1.118-2.697c-0.23-0.58-0.461-1.152-0.683-1.715c-0.358-0.93-0.7-1.835-1.024-2.722
				c-0.179-0.495-0.367-0.99-0.538-1.468c-0.29-0.819-0.563-1.604-0.828-2.372c-0.188-0.555-0.375-1.118-0.546-1.638
				c-0.7-2.125-1.297-4.045-1.741-5.598c6.554-5.163,16.572-10.598,27.204-16.017c4.318,18.534,13.338,56.764,19.516,79.386
				C243.964,101.39,243.87,101.381,243.784,101.356z M312.862,43.978c-0.12,0.358-0.247,0.725-0.367,1.101
				c-0.316,0.913-0.64,1.869-0.998,2.859c-0.119,0.324-0.247,0.666-0.367,1.007c-0.375,1.015-0.768,2.057-1.186,3.132
				c-0.162,0.427-0.341,0.87-0.521,1.314c-0.401,0.998-0.819,2.014-1.254,3.046c-0.247,0.572-0.495,1.152-0.751,1.732
				c-0.41,0.939-0.836,1.886-1.28,2.833c-0.341,0.725-0.691,1.451-1.041,2.185c-0.41,0.845-0.836,1.69-1.271,2.543
				c-0.435,0.845-0.888,1.698-1.348,2.552c-0.41,0.751-0.819,1.502-1.246,2.253c-0.546,0.947-1.109,1.894-1.681,2.833
				c-0.401,0.666-0.802,1.314-1.22,1.971c-0.648,1.007-1.323,1.997-2.005,2.987c-0.401,0.589-0.802,1.169-1.22,1.749
				c-0.742,1.007-1.51,1.997-2.295,2.978c-0.418,0.529-0.836,1.058-1.263,1.579c-0.819,0.973-1.681,1.92-2.551,2.85
				c-0.444,0.478-0.888,0.964-1.348,1.425c-0.888,0.905-1.818,1.749-2.748,2.594c-0.495,0.444-0.981,0.896-1.493,1.323
				c-0.939,0.785-1.911,1.502-2.901,2.219c-0.563,0.41-1.118,0.836-1.698,1.22c-0.973,0.649-1.988,1.22-3.004,1.792
				c-0.64,0.358-1.271,0.742-1.929,1.067c-1.007,0.503-2.048,0.913-3.098,1.331c-0.734,0.299-1.451,0.614-2.202,0.87
				c-0.196,0.068-0.41,0.102-0.614,0.162c6.187-22.63,15.198-60.826,19.507-79.343c10.633,5.41,20.651,10.854,27.204,16.017
				C314.21,39.762,313.596,41.759,312.862,43.978z"/>
			<rect x="247.467" y="197.259" width="17.07" height="34.13"/>
			<path d="M317.346,222.863c-0.939-2.705-1.613-5.47-1.613-8.533c0-2.825,0.23-5.683,0.555-8.533H281.6v17.066H317.346z"/>
			<path d="M279.225,239.93c-2.961,5.077-8.405,8.533-14.694,8.533h-17.067c-6.289,0-11.733-3.456-14.686-8.533H185
				c-9.907,14.763-22.869,35.14-22.869,76.442c0,64.777,16.657,151.407,25.984,181.709c0.751,2.458,2.577,4.437,4.958,5.41
				c0.964,0.384,24.03,9.506,62.925,9.506c38.895,0,61.961-9.122,62.925-9.506c2.389-0.973,4.207-2.953,4.966-5.41
				c9.327-30.302,25.976-116.932,25.976-181.709c0-41.301-12.954-61.679-22.869-76.442H279.225z"/>
			<path d="M230.4,222.862v-17.066h-34.688c0.324,2.85,0.555,5.709,0.555,8.533c0,3.063-0.674,5.828-1.613,8.533H230.4z"/>
		</g>
	</g>
</g>
</svg>