<svg width="44" height="45" viewBox="0 0 44 45" fill="none" xmlns="http://www.w3.org/2000/svg">
<g clip-path="url(#clip0_91_422)">
<path d="M5.26465 0.859161C6.51382 2.10833 16.2513 8.09666 24.753 0.859161V9.99999H5.26465V0.859161Z" fill="white"/>
<path d="M29.0984 4.955C29.0984 2.84084 27.0742 1.22584 25.5401 0.462502C24.9059 0.147502 24.0301 0.790002 23.9601 1.19C23.1742 5.68167 18.2376 9.59 14.9992 9.59C11.8051 9.59 6.96923 5.7875 6.0859 1.3725C5.99423 0.913336 5.10006 0.150002 4.4634 0.468336C2.93173 1.2325 0.920898 2.84584 0.920898 4.955C3.52257 8.79417 4.11007 10.2725 4.11007 14.2542C4.11007 18.235 2.97173 26.0183 1.97673 28.01C2.97173 29.0058 8.8284 30 15.0001 30C21.1709 30 27.0401 29.0058 28.0351 28.0092C27.0401 26.0175 25.9134 18.2342 25.9134 14.2533C25.9134 10.2725 26.4976 8.79417 29.0984 4.955Z" fill="white"/>
<path d="M3.49336 21.3467C3.13253 23.8517 2.65836 26.2067 2.19336 27.485L25.9484 12.7875C26.0959 10.0133 26.7617 8.46751 28.7175 5.52335L3.49336 21.3467Z" fill="white"/>
</g>
<path d="M19.0334 15C18.7617 15.9012 18.7051 16.7187 19.0269 17.7069C22.7268 17.4698 25.8014 17.3571 28.4331 17.3301C32.7975 17.286 35.9828 17.4744 38.9662 17.703C39.2333 16.8215 39.0835 16.031 38.8946 15.0165C34.4455 15.2813 26.7394 15.1397 19.0334 15ZM30.0225 18.508C29.5144 18.508 28.9868 18.508 28.4396 18.5146C26.9349 18.5304 25.2803 18.5765 23.4564 18.6555C22.0168 21.6398 21.8995 24.4989 21.4892 27.582C20.9811 24.7163 21.3002 21.3763 21.4436 18.7524C20.6749 18.7945 19.8737 18.8407 19.0399 18.8947C16.0389 27.582 13.8795 36.0736 14.0052 44.0909C15.0351 44.3149 16.0226 44.4927 16.973 44.6311C16.8733 43.2015 17.2218 40.3425 18.2934 38.5638C17.9494 40.5269 18.2367 42.7865 18.4947 44.8155C19.6717 44.9341 20.7856 44.9868 21.8539 45C21.9321 39.967 21.8149 36.7521 23.4629 31.5807C23.4824 36.6928 23.8537 41.3043 25.0002 44.8946C26.7525 44.7694 28.407 44.552 30.029 44.3149C31.8985 44.0382 33.7224 43.7483 35.592 43.5705C35.6441 40.4347 34.9796 35.6454 35.1099 30.8166C36.7449 35.0064 37.6895 39.0974 38.0217 43.4189C39.9042 43.3662 41.8715 43.4848 43.995 43.8867C44.1058 38.9195 42.3665 26.6399 39.1551 19.3018C39.357 23.3592 39.6111 27.3185 39.0769 29.7493C38.2041 26.1327 37.5396 22.7663 36.3736 18.7129C34.4846 18.5982 32.4457 18.5152 30.0225 18.508Z" fill="white"/>
<defs>
<clipPath id="clip0_91_422">
<rect width="30" height="30" fill="white"/>
</clipPath>
</defs>
</svg>
