<?xml version="1.0" encoding="iso-8859-1"?>
<!-- Uploaded to: SVG Repo, www.svgrepo.com, Generator: SVG Repo Mixer Tools -->
<svg fill="#000000" height="800px" width="800px" version="1.1" id="Layer_1" xmlns="http://www.w3.org/2000/svg" xmlns:xlink="http://www.w3.org/1999/xlink" 
	 viewBox="0 0 491.705 491.705" xml:space="preserve">
<g>
	<g>
		<path d="M481.772,50.523c-1.597-2.499-3.727-4.628-6.267-6.226C412.345,4.176,351.97,0.265,349.43,0.121
			c-8.561-0.348-16.384,4.792-19.743,12.616l-0.307-0.123c-12.513,29.716-45.302,48.906-83.517,48.906
			c-34.365,0-69.714-21.033-84.05-50.033l-0.266,0.123c-3.584-7.168-10.916-11.776-19.272-11.489
			C139.736,0.265,79.381,4.176,16.2,44.297c-2.519,1.597-4.669,3.727-6.267,6.226C-2.887,70.532-12.554,119.52,42.537,161.77
			c2.109,1.618,4.547,2.826,7.107,3.523l52.859,14.316V389.2c0,11.305,9.155,20.48,20.48,20.48c33.874,0,61.44,27.566,61.44,61.44
			c0,11.305,9.155,20.48,20.48,20.48h81.92c11.305,0,20.48-9.175,20.48-20.48c0-33.874,27.546-61.44,61.44-61.44
			c11.305,0,20.48-9.175,20.48-20.48V179.608l52.859-14.316c2.56-0.696,4.977-1.905,7.086-3.523
			C504.259,119.52,494.592,70.532,481.772,50.523z M114.32,140.368l-49.91-13.517C36.496,103.935,39.691,84.13,42.865,75.959
			c33.321-20.132,65.495-28.795,84.48-32.44C135.496,92.957,122.799,125.254,114.32,140.368z M307.303,286.8h-12.001l8.479,8.479
			c7.987,8.008,7.987,20.971,0,28.959c-4.014,3.994-9.236,6.001-14.479,6.001c-5.243,0-10.486-2.007-14.479-6.001l-8.479-8.479
			v12.001c0,11.305-9.175,20.48-20.48,20.48c-11.325,0-20.48-9.175-20.48-20.48v-12.001l-8.479,8.479
			c-4.014,3.994-9.257,6.001-14.479,6.001c-5.243,0-10.486-2.007-14.5-6.001c-7.987-7.987-7.987-20.951,0-28.959l8.499-8.479
			h-12.001c-11.325,0-20.48-9.175-20.48-20.48c0-11.305,9.155-20.48,20.48-20.48h12.001l-8.499-8.479
			c-7.987-8.008-7.987-20.951,0-28.959c8.008-8.008,20.972-8.008,28.979,0l8.479,8.479V204.88c0-11.305,9.155-20.48,20.48-20.48
			c11.305,0,20.48,9.175,20.48,20.48v12.001l8.479-8.479c7.987-8.008,20.951-8.008,28.959,0c7.987,8.008,7.987,20.951,0,28.959
			l-8.479,8.479h12.001c11.305,0,20.48,9.175,20.48,20.48C327.783,277.625,318.608,286.8,307.303,286.8z M427.295,126.852
			l-49.787,13.476c-8.397-15.217-21.074-47.841-13.107-96.788c18.964,3.625,51.098,12.288,84.398,32.399
			C452.055,84.376,455.025,104.098,427.295,126.852z"/>
	</g>
</g>
</svg>