<?xml version="1.0" encoding="iso-8859-1"?>
<!-- Uploaded to: SVG Repo, www.svgrepo.com, Generator: SVG Repo Mixer Tools -->
<!DOCTYPE svg PUBLIC "-//W3C//DTD SVG 1.1//EN" "http://www.w3.org/Graphics/SVG/1.1/DTD/svg11.dtd">
<svg fill="#000000" version="1.1" id="Capa_1" xmlns="http://www.w3.org/2000/svg" xmlns:xlink="http://www.w3.org/1999/xlink" 
	 width="800px" height="800px" viewBox="0 0 60.438 60.438"
	 xml:space="preserve">
<g>
	<g>
		<path d="M60.417,48.945c-0.259-1.034-3.053-1.069-4.914-0.975c0.315,1.283,0.407,2.651-0.094,3.769
			C57.681,51.425,60.718,50.153,60.417,48.945z"/>
		<path d="M40.015,43.318c1.546-5.369,0.747-6.117,0.745-6.119c-0.007-0.003-0.031-0.01-0.076-0.01c-0.235,0-1.18,0.153-3.405,2.12
			c-3.625,3.201-9.915,6.609-12.395,7.454c1.921,3.746,4.224,5.755,6.631,6.86l0.964-0.27C32.685,53.298,37.56,51.843,40.015,43.318
			z"/>
		<path d="M50.542,52.347c0.016-0.045,1.422-4.59-1.39-9.702l-0.61-1.11c-0.913-0.579-1.727-1.344-2.452-2.244
			c0.047,1.22-0.071,2.384-0.466,3.378c-0.143,0.357-0.288,0.729-0.436,1.109c-1.518,3.885-3.357,8.573-6.67,11.118
			c3.543-0.196,8.673-1.246,11.833-1.959L50.542,52.347z"/>
		<path d="M8.398,53.958L7.748,30.159c3.874-3.847,11.461,3.938,15.124,11.958c2.156-1.073,14.891-7.592,18.317-13.41l0.277-0.47
			c-1.113-5.029-1.298-9.435-1.298-9.435s-7.682,0.781-14.453-4.427C18.944,9.167,9.831,5.39,9.831,5.39L8.659,7.604
			c19.081,9.766,13.802,25,13.802,25C18.164,25.573,2.539,17.37,0.977,17.239s-0.781,2.734-0.781,2.734
			c5.729,4.948,6.25,33.984,6.25,33.984H8.398z"/>
		<path d="M36.565,54.896c4.277-2.151,6.372-8.283,8.09-12.613c0.525-1.32,0.502-3.016,0.22-4.741
			c-0.664-4.062-2.788-8.305-2.788-8.305c-0.086,0.145-0.184,0.291-0.278,0.437c-3.963,6.022-16.498,12.398-18.519,13.399
			c-0.179,0.089-0.285,0.142-0.285,0.142l1.108,2.695c0.089-0.019,0.2-0.053,0.318-0.089c2.077-0.665,8.461-4.025,12.158-7.292
			c1.604-1.416,3.088-2.381,4.096-2.381c1.445,0,1.908,1.986,0.331,7.459c-2.273,7.898-6.645,10.133-7.906,10.628
			c-0.222,0.088-0.359,0.126-0.359,0.126l3.529,0.687C36.377,55.002,36.469,54.942,36.565,54.896z"/>
		<path d="M53.841,52.135c0.123-0.102,0.229-0.212,0.324-0.331c0.756-0.942,0.65-2.392,0.282-3.764
			c-0.39-1.456-1.068-2.822-1.322-3.392c-0.521-1.172-0.716-1.693-0.716-1.693l-2.344-0.813c0.03,0.056,0.054,0.112,0.084,0.167
			c2.937,5.496,1.386,10.355,1.386,10.355L53.841,52.135z"/>
	</g>
</g>
</svg>