<svg width="44" height="44" viewBox="0 0 44 44" fill="none" xmlns="http://www.w3.org/2000/svg">
<path d="M9.63867 0L4.22754 1.35156L0 11.2197L3.25098 13.3877L5.93262 8.02637L7.59766 8.50488L6.12598 23.1631H20.5664L21.4648 14.5791L21.5527 13.7881H21.9922L21.4648 8.50488L23.1348 8.02637L25.8105 13.3877L29.0625 11.2197L24.834 1.35156L19.4238 0C18.8867 0.37793 18.2324 0.606445 17.5195 0.776367C16.6016 0.992188 15.5664 1.09277 14.5312 1.09277C13.4961 1.09277 12.4609 0.992188 11.543 0.776367C10.8301 0.606445 10.1758 0.378906 9.63867 0ZM23.1348 15.5459L22.9883 16.9131H40.4492L40.3027 15.5459H23.1348ZM22.8027 18.6709L20.1953 43.4756H26.3184L30.8594 22.2939H32.5781L37.1191 43.4756H43.2422L40.6348 18.6709H22.8027Z" fill="white"/>
</svg>
