<svg width="50" height="50" viewBox="0 0 50 50" fill="none" xmlns="http://www.w3.org/2000/svg">
<path opacity="0.15" d="M7.91699 47.0625C7.91699 47.5653 9.71684 48.0475 12.9206 48.403C16.1243 48.7586 20.4695 48.9583 25.0003 48.9583C29.5311 48.9583 33.8763 48.7586 37.0801 48.403C40.2838 48.0475 42.0837 47.5653 42.0837 47.0625C42.0837 46.8135 41.6418 46.567 40.7833 46.337C39.9248 46.107 38.6664 45.898 37.0801 45.7219C35.4937 45.5459 33.6105 45.4062 31.5378 45.311C29.4652 45.2157 27.2437 45.1667 25.0003 45.1667C22.7569 45.1667 20.5355 45.2157 18.4628 45.311C16.3902 45.4062 14.5069 45.5459 12.9206 45.7219C11.3343 45.898 10.0759 46.107 9.21738 46.337C8.35887 46.567 7.91699 46.8135 7.91699 47.0625Z" fill="#45413C"/>
<path d="M13.615 46.3542C12.9437 46.3542 12.2999 46.0875 11.8252 45.6128C11.3505 45.1381 11.0838 44.4942 11.0838 43.8229V20.0729C11.0842 19.9614 11.0556 19.8517 11.001 19.7544C10.9464 19.6572 10.8675 19.5758 10.772 19.5181C10.6766 19.4604 10.5678 19.4284 10.4563 19.4252C10.3449 19.4221 10.2344 19.4478 10.1359 19.5C9.37546 19.9271 8.63587 20.3854 7.91712 20.8333C7.62296 21.0598 7.28152 21.217 6.9182 21.2932C6.55488 21.3695 6.17904 21.3628 5.81865 21.2737C5.45827 21.1846 5.12262 21.0154 4.83668 20.7786C4.55074 20.5419 4.32188 20.2437 4.16712 19.9062L2.20879 15.8542C1.93881 15.2922 1.88296 14.6511 2.0517 14.0509C2.22044 13.4507 2.60219 12.9327 3.12546 12.5937C9.63995 8.37133 17.2373 6.12454 25.0005 6.12454C32.7637 6.12454 40.361 8.37133 46.8755 12.5937C47.4004 12.9312 47.7829 13.4499 47.9501 14.0512C48.1172 14.6525 48.0573 15.2942 47.7817 15.8542L45.8338 19.9062C45.679 20.2437 45.4502 20.5419 45.1642 20.7786C44.8783 21.0154 44.5426 21.1846 44.1823 21.2737C43.8219 21.3628 43.446 21.3695 43.0827 21.2932C42.7194 21.217 42.378 21.0598 42.0838 20.8333C41.365 20.3542 40.6255 19.8958 39.8546 19.4687C39.7564 19.419 39.6471 19.3952 39.5371 19.3996C39.4272 19.404 39.3201 19.4365 39.2262 19.4939C39.1323 19.5513 39.0546 19.6317 39.0005 19.7276C38.9464 19.8235 38.9177 19.9316 38.9171 20.0417V43.7917C38.9171 44.463 38.6504 45.1068 38.1757 45.5815C37.701 46.0562 37.0572 46.3229 36.3859 46.3229L13.615 46.3542Z" fill="white"/>
<path d="M15.5109 7.44792L15.7921 7.1875C11.2897 8.2457 7.00435 10.0747 3.12546 12.5938C2.60219 12.9327 2.22044 13.4508 2.0517 14.0509C1.88296 14.6511 1.93881 15.2922 2.20879 15.8542L3.12546 17.6458C7.36515 14.884 12.0915 12.9538 17.0525 11.9583L15.5109 7.44792ZM46.8755 12.5938C42.9966 10.0747 38.7112 8.2457 34.2088 7.1875L34.49 7.44792L32.9484 11.9479C37.9094 12.9434 42.6358 14.8736 46.8755 17.6354L47.7505 15.8437C48.026 15.2885 48.0891 14.6517 47.928 14.0532C47.7668 13.4546 47.3925 12.9356 46.8755 12.5938Z" fill="white"/>
<path d="M13.615 46.3542C12.9437 46.3542 12.2999 46.0875 11.8252 45.6128C11.3505 45.1381 11.0838 44.4942 11.0838 43.8229V20.0729C11.0842 19.9614 11.0556 19.8517 11.001 19.7544C10.9464 19.6572 10.8675 19.5758 10.772 19.5181C10.6766 19.4604 10.5678 19.4284 10.4563 19.4252C10.3449 19.4221 10.2344 19.4478 10.1359 19.5C9.37546 19.9271 8.63587 20.3854 7.91712 20.8333C7.62296 21.0598 7.28152 21.217 6.9182 21.2932C6.55488 21.3695 6.17904 21.3628 5.81865 21.2737C5.45827 21.1846 5.12262 21.0154 4.83668 20.7786C4.55074 20.5419 4.32188 20.2437 4.16712 19.9062L2.20879 15.8542C1.93881 15.2922 1.88296 14.6511 2.0517 14.0509C2.22044 13.4507 2.60219 12.9327 3.12546 12.5937C9.63995 8.37133 17.2373 6.12454 25.0005 6.12454C32.7637 6.12454 40.361 8.37133 46.8755 12.5937C47.4004 12.9312 47.7829 13.4499 47.9501 14.0512C48.1172 14.6525 48.0573 15.2942 47.7817 15.8542L45.8338 19.9062C45.679 20.2437 45.4502 20.5419 45.1642 20.7786C44.8783 21.0154 44.5426 21.1846 44.1823 21.2737C43.8219 21.3628 43.446 21.3695 43.0827 21.2932C42.7194 21.217 42.378 21.0598 42.0838 20.8333C41.365 20.3542 40.6255 19.8958 39.8546 19.4687C39.7564 19.419 39.6471 19.3952 39.5371 19.3996C39.4272 19.404 39.3201 19.4365 39.2262 19.4939C39.1323 19.5513 39.0546 19.6317 39.0005 19.7276C38.9464 19.8235 38.9177 19.9316 38.9171 20.0417V43.7917C38.9171 44.463 38.6504 45.1068 38.1757 45.5815C37.701 46.0562 37.0572 46.3229 36.3859 46.3229L13.615 46.3542Z" stroke="#45413C" stroke-width="0.5" stroke-linecap="round" stroke-linejoin="round"/>
<path d="M30.6982 3.96875L25.0003 9.65625L31.3024 14.2396C31.3801 14.2956 31.4694 14.3334 31.5637 14.35C31.658 14.3667 31.7549 14.3618 31.847 14.3358C31.9392 14.3097 32.0243 14.2632 32.0959 14.1996C32.1676 14.1361 32.2239 14.0571 32.2607 13.9688L34.4899 7.44792L30.6982 3.96875ZM19.3024 3.96875L25.0003 9.65625L18.7503 14.2396C18.6727 14.2956 18.5833 14.3334 18.489 14.35C18.3947 14.3667 18.2979 14.3618 18.2057 14.3358C18.1135 14.3097 18.0285 14.2632 17.9568 14.1996C17.8852 14.1361 17.8288 14.0571 17.792 13.9688L15.5107 7.44792L19.3024 3.96875Z" fill="white"/>
<path d="M32.5625 5.67708L30.6979 3.96875L25 9.65625L27.0729 11.1667L32.5625 5.67708ZM22.9271 11.1667L25 9.65625L19.3021 3.96875L17.4375 5.67708L22.9271 11.1667Z" fill="white"/>
<path d="M25.0003 9.65625L30.6982 3.96875L34.4899 7.44792L32.2607 13.9688C32.2239 14.0571 32.1676 14.1361 32.0959 14.1996C32.0243 14.2632 31.9392 14.3097 31.847 14.3358C31.7549 14.3618 31.658 14.3667 31.5637 14.35C31.4694 14.3334 31.3801 14.2956 31.3024 14.2396L25.0003 9.65625ZM25.0003 9.65625L19.3024 3.96875L15.5107 7.44792L17.792 13.9688C17.8288 14.0571 17.8852 14.1361 17.9568 14.1996C18.0285 14.2632 18.1135 14.3097 18.2057 14.3358C18.2979 14.3618 18.3947 14.3667 18.489 14.35C18.5833 14.3334 18.6727 14.2956 18.7503 14.2396L25.0003 9.65625Z" stroke="#45413C" stroke-width="0.5" stroke-linecap="round" stroke-linejoin="round"/>
<path d="M19.3018 3.96875L24.9997 9.65625L30.6976 3.96875H19.3018Z" fill="#009FD9"/>
<path d="M28.3434 6.32292H21.6559L19.3018 3.96875H30.6976L28.3434 6.32292Z" fill="white"/>
<path d="M24.9997 9.65625L19.3018 3.96875H30.6976L24.9997 9.65625ZM24.9997 9.65625V15.3542" stroke="#45413C" stroke-width="0.5" stroke-linecap="round" stroke-linejoin="round"/>
</svg>
