<?xml version="1.0" encoding="iso-8859-1"?>
<!-- Uploaded to: SVG Repo, www.svgrepo.com, Generator: SVG Repo Mixer Tools -->
<svg fill="#000000" height="800px" width="800px" version="1.1" id="Layer_1" xmlns="http://www.w3.org/2000/svg" xmlns:xlink="http://www.w3.org/1999/xlink" 
	 viewBox="0 0 511.999 511.999" xml:space="preserve">
<g>
	<g>
		<path d="M494.94,187.369c-3.785-34.192-15.119-64.146-32.781-86.625c-24.867-31.651-60.546-46.542-103.182-43.078
			c-29.623,2.41-53.219,14.566-70.132,36.126c-12.96,16.521-21.742,38.39-26.103,64.999c-4.543,27.717-1.583,54.743,1.281,80.879
			c0.78,7.125,1.586,14.493,2.229,21.76c0.495,5.606,1.04,11.297,1.591,17.054c0.392,4.089,0.788,8.212,1.17,12.363v0.001
			c2.098,22.82,4.138,49.346,1.755,75.393c-7.036,76.91,18.997,128.788,71.427,142.331c8.99,2.322,18.037,3.427,26.922,3.427
			c40.714,0,77.908-23.231,89.333-59.045c9.598-30.088,11.351-57.684,13.048-84.371c1.065-16.771,2.167-34.112,5.243-51.864
			c2.073-11.963,4.833-23.069,8.441-33.955C495.005,253.137,498.47,219.259,494.94,187.369z M448.335,367.118
			c-1.678,26.442-3.265,51.423-11.995,78.785c-10.069,31.558-50.52,49.971-88.34,40.199c-21.944-5.667-37.579-20.211-46.473-43.224
			c-6.728-17.408-8.683-36.895-8.631-53.945h96.499c6.408,0,11.604-5.196,11.604-11.604c0-6.408-5.196-11.604-11.604-11.604h-95.298
			c1.981-24.381,0.525-48.506-1.337-69.916c0.463-0.277,0.925-0.556,1.39-0.827c0.565-0.33,1.13-0.66,1.699-0.982
			c0.79-0.444,1.586-0.875,2.384-1.303c0.552-0.296,1.102-0.598,1.658-0.885c0.849-0.44,1.706-0.861,2.562-1.281
			c0.513-0.252,1.022-0.512,1.539-0.757c1.006-0.478,2.021-0.932,3.038-1.383c0.372-0.165,0.742-0.341,1.115-0.503
			c1.394-0.602,2.797-1.18,4.209-1.731c0.31-0.121,0.624-0.23,0.935-0.348c1.105-0.422,2.212-0.837,3.326-1.228
			c0.519-0.182,1.043-0.348,1.563-0.523c0.912-0.306,1.824-0.613,2.743-0.898c0.587-0.182,1.179-0.352,1.768-0.526
			c0.861-0.254,1.722-0.507,2.588-0.743c0.62-0.169,1.242-0.326,1.863-0.486c0.844-0.216,1.687-0.428,2.534-0.627
			c0.638-0.15,1.278-0.291,1.918-0.432c0.841-0.184,1.684-0.36,2.527-0.527c0.644-0.126,1.289-0.25,1.934-0.367
			c0.851-0.153,1.702-0.297,2.556-0.434c0.643-0.103,1.287-0.205,1.932-0.298c0.87-0.125,1.744-0.237,2.618-0.343
			c0.629-0.078,1.258-0.159,1.888-0.226c0.911-0.099,1.825-0.178,2.74-0.256c0.596-0.051,1.193-0.11,1.791-0.153
			c1.008-0.073,2.018-0.122,3.029-0.169c0.506-0.024,1.01-0.06,1.516-0.078c1.518-0.055,3.038-0.085,4.56-0.085
			c1.142,0,2.28,0.016,3.416,0.046c0.382,0.009,0.761,0.03,1.143,0.044c0.754,0.026,1.509,0.051,2.26,0.091
			c0.449,0.024,0.897,0.058,1.346,0.086c0.681,0.043,1.362,0.084,2.04,0.137c0.479,0.038,0.955,0.086,1.433,0.129
			c0.645,0.058,1.289,0.115,1.932,0.182c0.495,0.052,0.99,0.114,1.484,0.172c0.623,0.073,1.245,0.145,1.866,0.226
			c0.503,0.066,1.004,0.142,1.505,0.214c0.608,0.088,1.216,0.175,1.822,0.272c0.508,0.081,1.014,0.169,1.521,0.256
			c0.596,0.102,1.194,0.205,1.788,0.316c0.508,0.095,1.014,0.195,1.521,0.296c0.589,0.117,1.179,0.237,1.767,0.362
			c0.507,0.108,1.012,0.222,1.517,0.337c0.583,0.132,1.165,0.266,1.746,0.407c0.506,0.122,1.011,0.248,1.514,0.377
			c0.577,0.146,1.152,0.297,1.727,0.451c0.502,0.136,1.004,0.275,1.504,0.417c0.572,0.161,1.142,0.327,1.71,0.498
			c0.499,0.148,0.997,0.299,1.493,0.455c0.566,0.176,1.13,0.359,1.694,0.543c0.497,0.162,0.992,0.326,1.487,0.494
			c0.559,0.191,1.117,0.388,1.674,0.587c0.491,0.175,0.982,0.35,1.47,0.531c0.558,0.207,1.114,0.421,1.669,0.636
			c0.483,0.187,0.967,0.372,1.447,0.565c0.557,0.224,1.112,0.455,1.665,0.686c0.473,0.197,0.948,0.393,1.42,0.598
			c0.557,0.241,1.111,0.49,1.665,0.739c0.464,0.208,0.928,0.413,1.39,0.627c0.558,0.259,1.112,0.527,1.665,0.794
			c0.453,0.218,0.906,0.432,1.358,0.653c0.567,0.281,1.13,0.573,1.694,0.863c0.431,0.221,0.862,0.436,1.29,0.663
			c0.596,0.315,1.187,0.642,1.78,0.967c0.391,0.215,0.784,0.422,1.173,0.641c0.718,0.403,1.43,0.819,2.14,1.237
			c0.256,0.151,0.516,0.295,0.773,0.448c0.961,0.573,1.915,1.159,2.864,1.757c0.324,0.204,0.643,0.419,0.966,0.627
			c0.625,0.403,1.252,0.804,1.873,1.218c0.396,0.265,0.786,0.537,1.179,0.807c0.541,0.37,1.084,0.737,1.621,1.115
			c0.415,0.292,0.825,0.595,1.237,0.893c0.508,0.368,1.019,0.732,1.523,1.108c0.421,0.313,0.837,0.635,1.256,0.954
			c0.489,0.372,0.978,0.744,1.463,1.123c0.424,0.332,0.842,0.673,1.264,1.011c0.471,0.378,0.942,0.755,1.41,1.141
			c0.424,0.349,0.842,0.706,1.263,1.061c0.458,0.388,0.918,0.775,1.372,1.171c0.419,0.363,0.834,0.735,1.25,1.104
			c0.447,0.397,0.892,0.796,1.336,1.2c0.417,0.381,0.831,0.767,1.244,1.153c0.434,0.406,0.867,0.813,1.296,1.225
			c0.412,0.396,0.82,0.795,1.229,1.196c0.424,0.417,0.847,0.836,1.266,1.259c0.406,0.41,0.809,0.822,1.211,1.237
			c0.209,0.216,0.415,0.434,0.623,0.652C450.353,335.364,449.328,351.481,448.335,367.118z M463.153,275.463
			c-1.772,5.346-3.357,10.734-4.771,16.225c-0.614-0.527-1.236-1.041-1.856-1.557c-0.209-0.174-0.415-0.353-0.627-0.526
			c-0.996-0.819-1.999-1.626-3.012-2.418c-0.205-0.16-0.413-0.316-0.619-0.475c-0.803-0.623-1.609-1.239-2.424-1.845
			c-0.344-0.255-0.689-0.507-1.034-0.759c-0.689-0.505-1.382-1.005-2.078-1.499c-0.377-0.267-0.755-0.531-1.135-0.796
			c-0.693-0.482-1.39-0.956-2.09-1.426c-0.364-0.244-0.726-0.49-1.093-0.731c-0.795-0.525-1.596-1.039-2.4-1.548
			c-0.268-0.169-0.534-0.345-0.803-0.513c-1.076-0.673-2.158-1.332-3.248-1.979c-0.207-0.122-0.417-0.239-0.623-0.361
			c-0.882-0.516-1.767-1.027-2.659-1.526c-0.371-0.208-0.745-0.411-1.117-0.615c-0.739-0.406-1.481-0.808-2.226-1.201
			c-0.411-0.217-0.823-0.432-1.236-0.645c-0.731-0.378-1.464-0.75-2.201-1.115c-0.403-0.2-0.805-0.402-1.209-0.599
			c-0.819-0.398-1.643-0.787-2.468-1.171c-0.316-0.146-0.629-0.298-0.946-0.442c-1.142-0.521-2.288-1.029-3.442-1.522
			c-0.195-0.084-0.393-0.162-0.588-0.245c-0.958-0.405-1.921-0.802-2.886-1.187c-0.395-0.158-0.793-0.31-1.188-0.463
			c-0.777-0.303-1.556-0.601-2.338-0.891c-0.44-0.164-0.88-0.323-1.321-0.483c-0.761-0.274-1.526-0.542-2.291-0.804
			c-0.432-0.147-0.863-0.296-1.296-0.441c-0.84-0.28-1.683-0.548-2.526-0.812c-0.352-0.11-0.703-0.225-1.056-0.333
			c-1.194-0.364-2.392-0.717-3.594-1.052c-0.164-0.045-0.327-0.086-0.491-0.131c-1.042-0.287-2.086-0.563-3.134-0.827
			c-0.406-0.102-0.812-0.197-1.22-0.296c-0.815-0.198-1.629-0.392-2.447-0.577c-0.455-0.102-0.911-0.202-1.367-0.301
			c-0.79-0.171-1.582-0.335-2.375-0.493c-0.45-0.089-0.9-0.18-1.351-0.266c-0.854-0.162-1.711-0.314-2.567-0.461
			c-0.381-0.065-0.76-0.135-1.141-0.197c-1.234-0.202-2.468-0.391-3.706-0.563c-0.1-0.014-0.2-0.024-0.301-0.038
			c-1.138-0.156-2.28-0.296-3.423-0.425c-0.412-0.046-0.824-0.086-1.237-0.128c-0.841-0.088-1.683-0.171-2.525-0.244
			c-0.465-0.041-0.932-0.077-1.398-0.113c-0.807-0.063-1.613-0.118-2.421-0.167c-0.466-0.029-0.933-0.057-1.401-0.081
			c-0.856-0.044-1.713-0.078-2.57-0.107c-0.405-0.014-0.809-0.031-1.213-0.042c-1.257-0.032-2.515-0.052-3.774-0.052
			c-1.712,0-3.42,0.037-5.126,0.096c-0.531,0.019-1.062,0.048-1.592,0.071c-1.2,0.053-2.399,0.12-3.594,0.202
			c-0.585,0.041-1.169,0.082-1.752,0.13c-1.221,0.097-2.439,0.214-3.655,0.341c-0.492,0.051-0.986,0.096-1.478,0.153
			c-1.683,0.194-3.361,0.411-5.033,0.66c-0.247,0.037-0.492,0.084-0.739,0.121c-1.433,0.222-2.863,0.463-4.288,0.725
			c-0.549,0.101-1.094,0.212-1.642,0.319c-1.149,0.225-2.294,0.462-3.437,0.715c-0.571,0.125-1.142,0.252-1.712,0.385
			c-1.225,0.285-2.447,0.588-3.666,0.905c-0.433,0.113-0.867,0.217-1.299,0.332c-1.628,0.438-3.25,0.902-4.865,1.395
			c-0.36,0.11-0.717,0.231-1.076,0.344c-1.266,0.397-2.529,0.808-3.785,1.238c-0.543,0.186-1.083,0.379-1.623,0.572
			c-1.105,0.392-2.205,0.798-3.301,1.216c-0.533,0.203-1.065,0.405-1.597,0.615c-1.257,0.497-2.508,1.012-3.753,1.543
			c-0.327,0.139-0.658,0.27-0.985,0.412c-1.562,0.678-3.115,1.386-4.657,2.118c-0.391,0.186-0.779,0.383-1.169,0.572
			c-0.822,0.398-1.646,0.79-2.461,1.205c-0.357-3.764-0.706-7.498-1.033-11.195c-0.663-7.51-1.483-15.001-2.277-22.245
			c-2.82-25.721-5.481-50.012-1.451-74.601c8.337-50.86,33.642-78.364,75.212-81.746c35.012-2.847,62.94,8.687,83.051,34.285
			C473.892,153.245,481.805,219.196,463.153,275.463z"/>
	</g>
</g>
<g>
	<g>
		<path d="M452.825,161.747c-1.333-24.921-21.497-44.442-45.904-44.442c-13.475,0-24.663,7.457-32.073,14.273
			c-7.299-6.845-18.431-14.273-32.371-14.273c-24.405,0-44.567,19.521-45.902,44.445c-0.802,15.031,4.972,25.672,9.386,32.37
			c5.989,9.086,20.524,22.586,32.131,32.189c26.113,21.606,33.512,21.606,36.672,21.606c3.197,0,10.685,0,36.668-21.572
			c11.52-9.563,25.98-23.053,32.018-32.235C447.859,187.399,453.628,176.745,452.825,161.747z M424.057,181.358
			c-7.467,11.352-38.964,37.859-49.268,42.872c-10.393-5.078-42.019-31.604-49.45-42.881c-4.316-6.548-5.934-11.869-5.589-18.359
			c0.664-12.393,10.859-22.475,22.727-22.475c10.205,0,19.764,10.818,22.559,14.943c2.11,3.18,5.663,5.1,9.478,5.166
			c3.803,0.077,7.434-1.765,9.655-4.87c2.827-3.954,13.076-15.239,22.751-15.239c11.87,0,22.065,10.082,22.729,22.474
			C429.996,169.465,428.374,174.788,424.057,181.358z"/>
	</g>
</g>
<g>
	<g>
		<path d="M436.249,375.055c-0.151-0.731-0.371-1.462-0.661-2.169c-0.29-0.697-0.65-1.37-1.068-1.997
			c-0.418-0.638-0.905-1.23-1.439-1.764c-0.534-0.534-1.126-1.021-1.764-1.451c-0.627-0.418-1.3-0.778-2.008-1.068
			c-0.696-0.29-1.426-0.511-2.17-0.661c-1.497-0.302-3.04-0.302-4.537,0c-0.731,0.151-1.462,0.371-2.169,0.661
			c-0.697,0.29-1.37,0.65-1.997,1.068c-0.638,0.429-1.23,0.917-1.764,1.451c-0.534,0.534-1.021,1.126-1.451,1.764
			c-0.418,0.627-0.778,1.3-1.068,1.997c-0.29,0.707-0.511,1.438-0.661,2.169c-0.151,0.754-0.219,1.521-0.219,2.274
			c0,0.754,0.07,1.521,0.219,2.263c0.151,0.744,0.371,1.475,0.661,2.17c0.29,0.708,0.65,1.381,1.068,2.008
			c0.429,0.638,0.917,1.23,1.451,1.764c0.534,0.534,1.126,1.021,1.764,1.439c0.627,0.418,1.3,0.778,1.997,1.068
			c0.707,0.29,1.438,0.511,2.169,0.661c0.754,0.151,1.521,0.231,2.276,0.231c0.753,0,1.52-0.08,2.262-0.231
			c0.744-0.151,1.475-0.371,2.17-0.661c0.708-0.29,1.381-0.65,2.008-1.068c0.638-0.418,1.23-0.905,1.764-1.439
			c0.534-0.534,1.021-1.126,1.439-1.764c0.418-0.627,0.778-1.3,1.068-2.008c0.29-0.696,0.511-1.426,0.661-2.17
			c0.151-0.743,0.232-1.509,0.232-2.263C436.482,376.576,436.4,375.809,436.249,375.055z"/>
	</g>
</g>
<g>
	<g>
		<path d="M249.256,101.619c-4.361-26.609-13.142-48.477-26.101-64.999c-16.912-21.562-40.507-33.716-70.13-36.126
			C110.39-2.979,74.709,11.921,49.841,43.571C32.181,66.05,20.844,96.006,17.059,130.197c-3.53,31.89-0.065,65.77,9.757,95.396
			c3.608,10.882,6.37,21.99,8.442,33.956c3.075,17.753,4.177,35.095,5.243,51.864c1.695,26.688,3.449,54.284,13.048,84.371
			c11.427,35.817,48.618,59.044,89.335,59.044c8.882,0,17.933-1.105,26.92-3.426c52.429-13.543,78.462-65.421,71.427-142.332
			c-2.385-26.055-0.343-52.579,1.756-75.395c0.385-4.188,0.784-8.349,1.18-12.477c0.548-5.719,1.09-11.371,1.582-16.941
			c0.642-7.268,1.448-14.635,2.228-21.761C250.839,156.361,253.799,129.335,249.256,101.619z M218.125,311.18
			c1.84,20.195,2.014,49.514-7.652,74.526c-8.894,23.014-24.529,37.556-46.473,43.225c-37.816,9.773-78.272-8.642-88.34-40.2
			c-6.3-19.748-8.874-38.257-10.454-56.971h94.914c6.409,0,11.604-5.196,11.604-11.604c0-6.408-5.195-11.604-11.604-11.604H63.575
			c-0.968-15.203-2.005-30.863-4.519-47.264c0.222-0.232,0.442-0.465,0.666-0.696c0.376-0.388,0.752-0.773,1.131-1.156
			c0.447-0.45,0.897-0.896,1.348-1.34c0.383-0.376,0.766-0.75,1.152-1.121c0.457-0.439,0.917-0.872,1.379-1.303
			c0.388-0.363,0.775-0.724,1.166-1.082c0.468-0.427,0.939-0.847,1.411-1.267c0.393-0.349,0.786-0.7,1.181-1.043
			c0.479-0.415,0.963-0.825,1.447-1.234c0.395-0.334,0.789-0.67,1.187-0.998c0.494-0.408,0.992-0.808,1.491-1.208
			c0.395-0.317,0.788-0.636,1.186-0.948c0.515-0.404,1.035-0.798,1.555-1.194c0.388-0.295,0.774-0.594,1.164-0.884
			c0.542-0.404,1.088-0.796,1.635-1.189c0.376-0.27,0.75-0.547,1.128-0.813c0.583-0.411,1.172-0.81,1.76-1.211
			c0.348-0.237,0.693-0.48,1.042-0.714c0.689-0.46,1.386-0.907,2.081-1.354c0.254-0.162,0.505-0.332,0.759-0.492
			c0.955-0.603,1.916-1.193,2.883-1.77c0.179-0.106,0.36-0.207,0.538-0.312c0.789-0.465,1.581-0.926,2.378-1.374
			c0.346-0.194,0.696-0.379,1.044-0.571c0.635-0.348,1.268-0.699,1.909-1.036c0.399-0.211,0.803-0.412,1.205-0.618
			c0.593-0.305,1.185-0.612,1.782-0.907c0.429-0.212,0.862-0.415,1.293-0.623c0.574-0.276,1.149-0.555,1.727-0.823
			c0.448-0.208,0.899-0.406,1.35-0.608c0.567-0.254,1.134-0.509,1.705-0.755c0.461-0.2,0.925-0.39,1.388-0.584
			c0.565-0.236,1.13-0.472,1.699-0.7c0.471-0.189,0.943-0.37,1.417-0.554c0.565-0.218,1.13-0.436,1.698-0.646
			c0.482-0.179,0.964-0.352,1.447-0.523c0.565-0.202,1.131-0.401,1.7-0.595c0.486-0.166,0.975-0.327,1.463-0.486
			c0.57-0.187,1.141-0.37,1.714-0.549c0.492-0.153,0.986-0.303,1.481-0.451c0.573-0.171,1.148-0.339,1.722-0.501
			c0.497-0.14,0.995-0.279,1.493-0.413c0.579-0.157,1.159-0.308,1.741-0.456c0.499-0.127,0.998-0.253,1.499-0.374
			c0.586-0.142,1.172-0.277,1.76-0.411c0.501-0.114,1.003-0.226,1.506-0.334c0.591-0.126,1.182-0.245,1.775-0.363
			c0.504-0.101,1.008-0.201,1.514-0.295c0.596-0.111,1.196-0.215,1.795-0.317c0.505-0.087,1.01-0.174,1.516-0.255
			c0.608-0.096,1.217-0.185,1.827-0.273c0.5-0.072,0.999-0.146,1.5-0.214c0.622-0.082,1.246-0.154,1.871-0.227
			c0.493-0.058,0.985-0.12,1.48-0.171c0.644-0.068,1.29-0.124,1.937-0.182c0.477-0.043,0.952-0.091,1.43-0.129
			c0.679-0.053,1.361-0.094,2.042-0.137c0.448-0.028,0.895-0.063,1.344-0.086c0.752-0.039,1.506-0.065,2.26-0.091
			c0.381-0.014,0.761-0.034,1.143-0.044c1.136-0.03,2.276-0.046,3.416-0.046c1.522,0,3.043,0.03,4.56,0.085
			c0.506,0.019,1.01,0.053,1.516,0.078c1.011,0.049,2.023,0.097,3.03,0.171c0.598,0.043,1.193,0.101,1.789,0.153
			c0.914,0.078,1.83,0.158,2.742,0.256c0.63,0.068,1.258,0.149,1.886,0.226c0.875,0.108,1.749,0.218,2.62,0.345
			c0.644,0.093,1.287,0.195,1.93,0.298c0.854,0.137,1.707,0.28,2.559,0.434c0.645,0.117,1.289,0.24,1.933,0.366
			c0.845,0.167,1.687,0.342,2.529,0.527c0.641,0.14,1.28,0.282,1.918,0.432c0.847,0.198,1.691,0.411,2.533,0.627
			c0.622,0.159,1.245,0.317,1.865,0.486c0.865,0.236,1.724,0.487,2.584,0.742c0.592,0.174,1.185,0.344,1.773,0.527
			c0.914,0.285,1.824,0.589,2.733,0.895c0.525,0.176,1.051,0.344,1.575,0.527c1.104,0.386,2.2,0.798,3.294,1.215
			c0.321,0.123,0.646,0.236,0.968,0.361c1.409,0.551,2.809,1.128,4.202,1.729c0.389,0.168,0.772,0.35,1.159,0.522
			c1.001,0.444,2.002,0.892,2.993,1.362c0.526,0.249,1.046,0.514,1.568,0.772c0.847,0.415,1.693,0.831,2.532,1.266
			c0.564,0.291,1.121,0.596,1.681,0.897c0.789,0.424,1.577,0.848,2.359,1.289c0.577,0.325,1.148,0.659,1.721,0.993
			c0.461,0.269,0.919,0.544,1.376,0.819C217.317,260.81,215.812,285.899,218.125,311.18z M224.907,179.97
			c-0.794,7.243-1.614,14.735-2.277,22.245c-0.326,3.698-0.675,7.431-1.033,11.196c-0.804-0.408-1.618-0.795-2.429-1.188
			c-0.404-0.195-0.804-0.399-1.209-0.592c-1.538-0.73-3.084-1.434-4.642-2.111c-0.336-0.146-0.677-0.281-1.013-0.425
			c-1.237-0.527-2.479-1.04-3.727-1.532c-0.533-0.21-1.069-0.413-1.604-0.617c-1.095-0.418-2.193-0.823-3.297-1.215
			c-0.541-0.193-1.081-0.385-1.625-0.572c-1.257-0.431-2.52-0.842-3.788-1.239c-0.359-0.113-0.715-0.233-1.073-0.342
			c-1.614-0.492-3.238-0.956-4.867-1.395c-0.428-0.116-0.86-0.218-1.29-0.331c-1.222-0.317-2.446-0.622-3.675-0.907
			c-0.567-0.132-1.136-0.258-1.705-0.383c-1.146-0.253-2.295-0.491-3.446-0.716c-0.544-0.107-1.087-0.217-1.633-0.317
			c-1.431-0.263-2.865-0.506-4.303-0.729c-0.241-0.037-0.483-0.082-0.724-0.118c-1.673-0.251-3.354-0.468-5.036-0.661
			c-0.49-0.057-0.982-0.101-1.473-0.153c-1.218-0.128-2.438-0.244-3.66-0.342c-0.583-0.046-1.166-0.089-1.75-0.129
			c-1.196-0.082-2.396-0.147-3.596-0.202c-0.53-0.024-1.061-0.052-1.591-0.071c-1.706-0.058-3.414-0.096-5.126-0.096
			c-1.259,0-2.517,0.02-3.774,0.052c-0.405,0.01-0.809,0.028-1.213,0.042c-0.858,0.029-1.714,0.063-2.57,0.107
			c-0.469,0.024-0.936,0.052-1.405,0.081c-0.805,0.049-1.61,0.104-2.414,0.167c-0.468,0.036-0.935,0.073-1.402,0.113
			c-0.842,0.073-1.684,0.157-2.524,0.244c-0.413,0.043-0.827,0.082-1.239,0.129c-1.138,0.129-2.274,0.269-3.408,0.424
			c-0.104,0.014-0.21,0.026-0.315,0.039c-1.237,0.171-2.469,0.361-3.701,0.562c-0.388,0.064-0.775,0.135-1.163,0.201
			c-0.848,0.145-1.695,0.296-2.54,0.456c-0.46,0.087-0.919,0.179-1.377,0.27c-0.783,0.157-1.565,0.318-2.345,0.486
			c-0.464,0.1-0.927,0.201-1.39,0.305c-0.805,0.182-1.608,0.372-2.41,0.567c-0.42,0.102-0.84,0.201-1.259,0.306
			c-1.023,0.259-2.044,0.529-3.061,0.808c-0.186,0.051-0.374,0.097-0.559,0.15c-1.195,0.333-2.386,0.684-3.573,1.046
			c-0.375,0.115-0.747,0.236-1.121,0.353c-0.822,0.258-1.641,0.52-2.458,0.791c-0.448,0.148-0.895,0.303-1.343,0.457
			c-0.748,0.256-1.495,0.518-2.24,0.787c-0.456,0.165-0.911,0.33-1.366,0.498c-0.76,0.282-1.518,0.572-2.273,0.867
			c-0.417,0.162-0.834,0.321-1.25,0.487c-0.918,0.367-1.831,0.745-2.743,1.129c-0.244,0.102-0.49,0.201-0.733,0.304
			c-1.14,0.487-2.273,0.991-3.402,1.506c-0.35,0.16-0.699,0.327-1.048,0.49c-0.789,0.367-1.576,0.738-2.359,1.119
			c-0.429,0.209-0.856,0.422-1.283,0.635c-0.708,0.353-1.415,0.709-2.118,1.073c-0.436,0.225-0.871,0.453-1.307,0.681
			c-0.713,0.377-1.422,0.761-2.128,1.149c-0.404,0.222-0.808,0.441-1.209,0.666c-0.833,0.466-1.662,0.945-2.487,1.426
			c-0.263,0.154-0.529,0.303-0.791,0.458c-1.073,0.636-2.14,1.286-3.2,1.948c-0.313,0.195-0.622,0.398-0.933,0.596
			c-0.757,0.48-1.511,0.964-2.259,1.457c-0.398,0.262-0.793,0.529-1.187,0.795c-0.666,0.448-1.329,0.899-1.989,1.358
			c-0.406,0.282-0.811,0.565-1.215,0.851c-0.659,0.466-1.314,0.941-1.967,1.418c-0.382,0.28-0.764,0.556-1.143,0.839
			c-0.75,0.559-1.495,1.128-2.236,1.701c-0.266,0.205-0.534,0.406-0.798,0.613c-0.992,0.778-1.977,1.569-2.953,2.372
			c-0.273,0.223-0.54,0.454-0.81,0.68c-0.569,0.473-1.14,0.945-1.702,1.427c-1.415-5.492-3-10.881-4.772-16.226
			C30.194,162.024,38.108,96.072,68.091,57.909c18.119-23.061,42.588-34.706,72.853-34.706c3.328,0,6.73,0.14,10.198,0.422
			c41.572,3.383,66.877,30.886,75.212,81.746C230.384,129.959,227.723,154.251,224.907,179.97z"/>
	</g>
</g>
<g>
	<g>
		<path d="M215.426,104.578c-1.333-24.922-21.497-44.443-45.902-44.443c-13.94,0-25.071,7.427-32.371,14.273
			c-7.412-6.816-18.598-14.273-32.073-14.273c-24.406,0-44.57,19.521-45.904,44.442c-0.803,14.999,4.965,25.651,9.377,32.364
			c6.039,9.179,20.499,22.669,32.017,32.232c25.983,21.572,33.47,21.572,36.667,21.572c3.16,0,10.559,0,36.672-21.606
			c11.607-9.603,26.142-23.102,32.132-32.19C210.454,130.253,216.228,119.61,215.426,104.578z M186.663,124.178
			c-7.433,11.277-39.058,37.803-49.45,42.881c-10.305-5.013-41.8-31.52-49.266-42.869c-4.32-6.574-5.941-11.897-5.593-18.373
			c0.663-12.392,10.859-22.474,22.728-22.474c9.677,0,19.926,11.285,22.728,15.204c2.205,3.134,5.804,4.963,9.648,4.925
			c3.832-0.052,7.391-1.994,9.51-5.186c0.099-0.15,10.461-14.943,22.558-14.943c11.869,0,22.063,10.082,22.726,22.473
			C192.597,112.309,190.977,117.628,186.663,124.178z"/>
	</g>
</g>
<g>
	<g>
		<path d="M206.972,317.891c-0.139-0.742-0.371-1.471-0.661-2.169c-0.29-0.707-0.65-1.38-1.068-2.006
			c-0.418-0.638-0.905-1.231-1.439-1.765s-1.126-1.021-1.764-1.438c-0.627-0.418-1.3-0.779-2.008-1.069
			c-0.696-0.29-1.427-0.509-2.17-0.66c-1.485-0.302-3.029-0.302-4.526,0c-0.743,0.151-1.474,0.37-2.182,0.66
			c-0.696,0.29-1.369,0.651-1.996,1.069c-0.638,0.417-1.23,0.904-1.764,1.438c-0.534,0.534-1.021,1.127-1.451,1.765
			c-0.418,0.627-0.766,1.3-1.056,2.006c-0.29,0.697-0.522,1.427-0.661,2.17c-0.151,0.744-0.232,1.509-0.232,2.263
			c0,3.052,1.242,6.046,3.4,8.204c0.534,0.534,1.126,1.021,1.764,1.438c0.627,0.418,1.3,0.777,2.008,1.068
			c0.696,0.29,1.427,0.522,2.17,0.661c0.743,0.151,1.509,0.232,2.263,0.232c3.052,0,6.046-1.242,8.204-3.4
			c0.534-0.534,1.021-1.127,1.439-1.765c0.418-0.627,0.778-1.3,1.068-2.006c0.29-0.697,0.522-1.427,0.661-2.17
			c0.151-0.744,0.232-1.509,0.232-2.263C207.204,319.4,207.123,318.634,206.972,317.891z"/>
	</g>
</g>
</svg>