<svg width="38" height="50" viewBox="0 0 38 50" fill="none" xmlns="http://www.w3.org/2000/svg">
<path d="M10.4629 0.5H34.7275C36.2593 0.5 37.5008 1.74179 37.501 3.27344V11.5547C37.5009 13.0864 36.2594 14.3281 34.7275 14.3281H33.7354V14.8281L33.7344 27.4229C33.7284 30.2648 32.6424 33.1039 30.4746 35.2715L19.5059 46.2393C17.3318 48.413 14.4839 49.5 11.6338 49.5C8.78349 49.5 5.93467 48.4134 3.76074 46.2393C-0.587064 41.8914 -0.586873 34.842 3.76074 30.4941L11.4688 22.7861V14.3281H10.4629C8.93137 14.3279 7.68959 13.0864 7.68945 11.5547V3.27344C7.68962 1.74192 8.93123 0.500219 10.4629 0.5ZM5.07227 35.9326C4.15487 38.4158 4.69111 41.3215 6.68457 43.3154C8.00571 44.6366 9.76527 45.3652 11.6338 45.3652C12.4779 45.3652 13.3006 45.2164 14.0713 44.9307L14.8027 44.6592L5.89551 35.752L5.34277 35.2002L5.07227 35.9326ZM15.6035 22.5791C15.6035 23.8084 15.1153 24.9881 14.2461 25.8574L8.40039 31.7021L8.04688 32.0557L17.9443 41.9531L26.5596 33.3379L26.3926 33.0137L23.2773 26.9541L29.2178 23.9834H29.5996V14.3281H15.6035V22.5791ZM11.8252 10.1934H33.3662V4.63574H11.8252V10.1934Z" fill="white" stroke="white"/>
</svg>
