<svg width="46" height="48" viewBox="0 0 46 48" fill="none" xmlns="http://www.w3.org/2000/svg">
<path d="M23.6056 0.649707C19.9181 1.36914 14.783 3.26563 11.3738 5.35107C11.7448 6.16221 12.1948 7.05225 12.6855 7.99697C16.4728 5.8376 20.307 4.18799 24.2189 3.58984C24.0076 2.61115 23.8031 1.63098 23.6056 0.649414V0.649707ZM38.632 4.02734C35.1697 4.28662 30.362 5.39912 26.7865 6.88418C27.0242 7.85393 27.2737 8.82074 27.535 9.78438C31.3448 8.22285 35.1408 7.14619 38.8948 7.01943C38.7982 6.00088 38.7103 4.99805 38.632 4.02734ZM24.5981 5.31055C20.9381 5.85117 17.2345 7.42383 13.5014 9.55527C13.9793 10.4643 14.4747 11.4088 14.9665 12.3831C18.1609 10.43 21.5811 8.97686 25.3105 8.30654C25.059 7.30068 24.8222 6.29981 24.5981 5.31055ZM39.0692 8.77266C35.5155 8.87451 31.8094 9.91973 28.0135 11.4895C28.3114 12.5166 28.6246 13.5354 28.9549 14.5357C32.272 13.0436 35.7459 12.0521 39.424 11.8316C39.2944 10.8133 39.1762 9.79359 39.0692 8.77266ZM25.7508 10.0136C22.1684 10.6371 18.8737 12.0356 15.7465 13.9665C16.2306 14.9772 16.6949 16.0065 17.1114 17.0409C18.0465 19.3642 18.7456 21.7191 18.8662 23.9925C18.9868 26.2659 18.5018 28.4858 17.0578 30.3431L16.9635 30.4642L4.09827 38.5915C5.07131 39.614 5.95227 40.7118 6.54846 41.978C7.04729 43.0369 7.3261 44.2202 7.28255 45.5081C12.7786 42.1687 18.7261 40.4861 24.1525 39.1238C23.5916 36.9998 23.6732 34.6577 24.8038 32.4425C26.0325 30.0354 28.4542 27.8366 32.3989 26.1347C29.4454 21.8945 27.3331 15.9609 25.7509 10.0137L25.7508 10.0136ZM39.6605 13.579C36.1267 13.7712 32.7775 14.7259 29.5286 16.205C30.8946 20.0245 32.5215 23.4807 34.4632 25.9872L34.5423 26.0897L34.589 26.2108C35.7948 29.3571 35.7193 32.4497 34.3901 34.9657C33.061 37.4816 30.5099 39.3609 27.0268 40.2219C23.7533 41.0312 20.2824 41.8762 16.8295 43.0607C17.1999 44.1707 17.3376 45.3784 17.143 46.6518C22.9939 43.9826 29.0981 43.0126 34.6469 42.2984C34.34 40.1232 34.6967 37.8072 36.0801 35.7404C37.5834 33.4946 40.2471 31.5962 44.3648 30.3703C41.931 25.8119 40.5318 19.6711 39.6604 13.5789L39.6605 13.579ZM33.2347 27.6884C29.473 29.2821 27.3833 31.256 26.3697 33.2418C25.4441 35.0553 25.3773 36.9276 25.8585 38.7006C26.1056 38.6395 26.3607 38.5758 26.605 38.5154C29.7098 37.7478 31.7689 36.1639 32.8358 34.1443C33.7925 32.3334 33.9735 30.1232 33.2348 27.6883L33.2347 27.6884ZM45.012 32.0116C41.0887 33.1515 38.7812 34.8655 37.5407 36.7183C36.4081 38.4102 36.1214 40.2617 36.3906 42.0791C36.6433 42.0477 36.904 42.0143 37.1539 41.983C40.3274 41.5863 42.5586 40.2557 43.8558 38.3759C45.0189 36.69 45.4588 34.5165 45.012 32.0116ZM2.63508 39.6063C0.804615 41.214 0.499634 43.2865 1.07307 44.7825C1.38772 45.6036 1.95901 46.2397 2.73206 46.577C3.41829 46.8763 4.29192 46.952 5.3762 46.6219C5.72014 45.1111 5.50764 43.8924 4.95862 42.7268C4.44905 41.6447 3.61682 40.6193 2.63508 39.6062V39.6063ZM15.1746 43.6574C13.8106 44.173 12.4549 44.75 11.1207 45.4068C11.3603 46.1658 11.8295 46.7877 12.4981 47.1788C13.1442 47.5567 14.0028 47.7348 15.1182 47.5347C15.6319 46.0909 15.5707 44.8667 15.1745 43.6574H15.1746Z" fill="white"/>
</svg>